HIERARCHY
ROOT Hips
{
	OFFSET 0.000000 103.266502 0.000000
	CHANNELS 6 Xposition Yposition Zposition Xrotation Yrotation Zrotation 
	JOINT Spine
	{
		OFFSET -0.002400 12.777504 0.315300
		CHANNELS 3 Xrotation Yrotation Zrotation
		JOINT Spine1
		{
			OFFSET -0.002067 5.816869 0.032633
			CHANNELS 3 Xrotation Yrotation Zrotation
			JOINT Spine1_split
			{
				OFFSET -0.002067 5.816869 0.032633
				CHANNELS 3 Xrotation Yrotation Zrotation
				JOINT Spine2
				{
					OFFSET -0.002067 5.816869 0.032633
					CHANNELS 3 Xrotation Yrotation Zrotation
					JOINT Neck
					{
						OFFSET -0.003700 21.199493 -0.826900
						CHANNELS 3 Xrotation Yrotation Zrotation
						JOINT Head
						{
							OFFSET 0.000000 20.442200 4.834800
							CHANNELS 3 Xrotation Yrotation Zrotation
							JOINT HeadTop_End
							{
								OFFSET 0.000000 34.668396 4.968400
								CHANNELS 3 Xrotation Yrotation Zrotation
								End Site
								{
									OFFSET 0.000000 0.000000 0.000000
								}
							}
						}
					}
					JOINT LeftShoulder
					{
						OFFSET 3.288150 8.794197 -1.372250
						CHANNELS 3 Xrotation Yrotation Zrotation
						JOINT LeftShoulder_split
						{
							OFFSET 3.288150 8.794197 -1.372250
							CHANNELS 3 Xrotation Yrotation Zrotation
							JOINT LeftArm
							{
								OFFSET 11.953299 -2.279007 -0.146200
								CHANNELS 3 Xrotation Yrotation Zrotation
								JOINT LeftForeArm
								{
									OFFSET 18.448900 0.000000 0.000000
									CHANNELS 3 Xrotation Yrotation Zrotation
									JOINT LeftHand
									{
										OFFSET 29.527798 0.000000 0.000000
										CHANNELS 3 Xrotation Yrotation Zrotation
										JOINT LeftHandThumb1
										{
											OFFSET 10.739754 -2.369614 9.225399
											CHANNELS 3 Xrotation Yrotation Zrotation
											JOINT LeftHandThumb2
											{
												OFFSET 4.926170 -2.844131 2.844125
												CHANNELS 3 Xrotation Yrotation Zrotation
												JOINT LeftHandThumb3
												{
													OFFSET 4.614891 -2.664413 2.664409
													CHANNELS 3 Xrotation Yrotation Zrotation
													JOINT LeftHandThumb4
													{
														OFFSET 4.432465 -2.559082 2.559083
														CHANNELS 3 Xrotation Yrotation Zrotation
														End Site
														{
															OFFSET 0.000000 0.000000 0.000000
														}
													}
												}
											}
										}
										JOINT LeftHandIndex1
										{
											OFFSET 26.467674 0.187653 6.405298
											CHANNELS 3 Xrotation Yrotation Zrotation
											JOINT LeftHandIndex2
											{
												OFFSET 8.792900 0.000000 0.000000
												CHANNELS 3 Xrotation Yrotation Zrotation
												JOINT LeftHandIndex3
												{
													OFFSET 10.075203 0.000000 0.000000
													CHANNELS 3 Xrotation Yrotation Zrotation
													End Site
													{
														OFFSET 0.000000 0.000000 0.000000
													}
												}
											}
										}
										JOINT LeftHandMiddle1
										{
											OFFSET 25.764404 0.000000 0.000000
											CHANNELS 3 Xrotation Yrotation Zrotation
											JOINT LeftHandMiddle2
											{
												OFFSET 9.393974 0.000000 0.000000
												CHANNELS 3 Xrotation Yrotation Zrotation
												JOINT LeftHandMiddle3
												{
													OFFSET 10.771950 0.000000 0.000000
													CHANNELS 3 Xrotation Yrotation Zrotation
													End Site
													{
														OFFSET 0.000000 0.000000 0.000000
													}
												}
											}
										}
										JOINT LeftHandRing1
										{
											OFFSET 24.660927 0.144547 -6.225808
											CHANNELS 3 Xrotation Yrotation Zrotation
											JOINT LeftHandRing2
											{
												OFFSET 9.393799 0.000000 0.000000
												CHANNELS 3 Xrotation Yrotation Zrotation
												JOINT LeftHandRing3
												{
													OFFSET 9.928497 0.000000 0.000000
													CHANNELS 3 Xrotation Yrotation Zrotation
													End Site
													{
														OFFSET 0.000000 0.000000 0.000000
													}
												}
											}
										}
										JOINT LeftHandPinky1
										{
											OFFSET 23.655350 0.125290 -12.815412
											CHANNELS 3 Xrotation Yrotation Zrotation
											JOINT LeftHandPinky2
											{
												OFFSET 8.425102 0.000000 0.000000
												CHANNELS 3 Xrotation Yrotation Zrotation
												JOINT LeftHandPinky3
												{
													OFFSET 8.147003 0.000000 0.000000
													CHANNELS 3 Xrotation Yrotation Zrotation
													End Site
													{
														OFFSET 0.000000 0.000000 0.000000
													}
												}
											}
										}
									}
								}
							}
						}
					}
					JOINT RightShoulder
					{
						OFFSET -3.249400 8.794197 -1.372250
						CHANNELS 3 Xrotation Yrotation Zrotation
						JOINT RightShoulder_split
						{
							OFFSET -3.249400 8.794197 -1.372250
							CHANNELS 3 Xrotation Yrotation Zrotation
							JOINT RightArm
							{
								OFFSET -11.953299 -2.279007 -0.146200
								CHANNELS 3 Xrotation Yrotation Zrotation
								JOINT RightForeArm
								{
									OFFSET -18.448900 0.000000 0.000000
									CHANNELS 3 Xrotation Yrotation Zrotation
									JOINT RightHand
									{
										OFFSET -29.527802 0.000000 0.000000
										CHANNELS 3 Xrotation Yrotation Zrotation
										JOINT RightHandThumb1
										{
											OFFSET -10.739754 -2.369614 9.225399
											CHANNELS 3 Xrotation Yrotation Zrotation
											JOINT RightHandThumb2
											{
												OFFSET -4.926170 -2.844131 2.844125
												CHANNELS 3 Xrotation Yrotation Zrotation
												JOINT RightHandThumb3
												{
													OFFSET -4.614891 -2.664413 2.664409
													CHANNELS 3 Xrotation Yrotation Zrotation
													JOINT RightHandThumb4
													{
														OFFSET -4.432465 -2.559082 2.559083
														CHANNELS 3 Xrotation Yrotation Zrotation
														End Site
														{
															OFFSET 0.000000 0.000000 0.000000
														}
													}
												}
											}
										}
										JOINT RightHandIndex1
										{
											OFFSET -26.467674 0.187653 6.405298
											CHANNELS 3 Xrotation Yrotation Zrotation
											JOINT RightHandIndex2
											{
												OFFSET -8.792900 0.000000 0.000000
												CHANNELS 3 Xrotation Yrotation Zrotation
												JOINT RightHandIndex3
												{
													OFFSET -10.075203 0.000000 0.000000
													CHANNELS 3 Xrotation Yrotation Zrotation
													End Site
													{
														OFFSET 0.000000 0.000000 0.000000
													}
												}
											}
										}
										JOINT RightHandMiddle1
										{
											OFFSET -25.764404 0.000000 0.000000
											CHANNELS 3 Xrotation Yrotation Zrotation
											JOINT RightHandMiddle2
											{
												OFFSET -9.393974 0.000000 0.000000
												CHANNELS 3 Xrotation Yrotation Zrotation
												JOINT RightHandMiddle3
												{
													OFFSET -10.771950 0.000000 0.000000
													CHANNELS 3 Xrotation Yrotation Zrotation
													End Site
													{
														OFFSET 0.000000 0.000000 0.000000
													}
												}
											}
										}
										JOINT RightHandRing1
										{
											OFFSET -24.660927 0.144547 -6.225808
											CHANNELS 3 Xrotation Yrotation Zrotation
											JOINT RightHandRing2
											{
												OFFSET -9.393799 0.000000 0.000000
												CHANNELS 3 Xrotation Yrotation Zrotation
												JOINT RightHandRing3
												{
													OFFSET -9.928497 0.000000 0.000000
													CHANNELS 3 Xrotation Yrotation Zrotation
													End Site
													{
														OFFSET 0.000000 0.000000 0.000000
													}
												}
											}
										}
										JOINT RightHandPinky1
										{
											OFFSET -23.655350 0.125290 -12.815412
											CHANNELS 3 Xrotation Yrotation Zrotation
											JOINT RightHandPinky2
											{
												OFFSET -8.425102 0.000000 0.000000
												CHANNELS 3 Xrotation Yrotation Zrotation
												JOINT RightHandPinky3
												{
													OFFSET -8.147003 0.000000 0.000000
													CHANNELS 3 Xrotation Yrotation Zrotation
													End Site
													{
														OFFSET 0.000000 0.000000 0.000000
													}
												}
											}
										}
									}
								}
							}
						}
					}
				}
			}
		}
	}
	JOINT LeftUpLeg
	{
		OFFSET 11.394100 -6.187798 -0.413800
		CHANNELS 3 Xrotation Yrotation Zrotation
		JOINT LeftLeg
		{
			OFFSET 0.430247 -32.302673 3.732800
			CHANNELS 3 Xrotation Yrotation Zrotation
			JOINT LeftFoot
			{
				OFFSET -0.430247 -48.264931 -6.423300
				CHANNELS 3 Xrotation Yrotation Zrotation
				JOINT LeftToeBase
				{
					OFFSET 4.230900 -16.068199 23.438400
					CHANNELS 3 Xrotation Yrotation Zrotation
					JOINT LeftToe_End
					{
						OFFSET 4.510700 0.695400 19.974600
						CHANNELS 3 Xrotation Yrotation Zrotation
						End Site
						{
							OFFSET 0.000000 0.000000 0.000000
						}
					}
				}
			}
		}
	}
	JOINT RightUpLeg
	{
		OFFSET -11.333700 -6.187798 -0.413800
		CHANNELS 3 Xrotation Yrotation Zrotation
		JOINT RightLeg
		{
			OFFSET -0.430392 -32.302628 3.733000
			CHANNELS 3 Xrotation Yrotation Zrotation
			JOINT RightFoot
			{
				OFFSET 0.430392 -48.264973 -6.423500
				CHANNELS 3 Xrotation Yrotation Zrotation
				JOINT RightToeBase
				{
					OFFSET -4.230900 -16.068199 23.438400
					CHANNELS 3 Xrotation Yrotation Zrotation
					JOINT RightToe_End
					{
						OFFSET -4.510700 0.695400 19.974600
						CHANNELS 3 Xrotation Yrotation Zrotation
						End Site
						{
							OFFSET 0.000000 0.000000 0.000000
						}
					}
				}
			}
		}
	}
}
MOTION
Frames: 5
Frame Time: 0.016667
-2.584928 45.068382 86.849640 20.508702 -24.001573 -5.867593 5.369405 0.160021 0.920282 -5.387900 1.463341 2.228129 0.000000 0.000000 0.000000 -5.408688 1.438964 2.129569 -64.248687 1.118115 14.686592 13.384896 14.022325 -18.292368 0.000000 0.000001 -0.000002 -18.927007 2.423263 -16.209299 0.000000 0.000000 0.000000 6.399252 13.475588 -49.024072 73.253328 -19.968920 30.111398 -15.141025 22.562574 -4.718118 -0.610181 -6.200720 8.854777 3.159791 21.613953 -1.887056 1.442467 2.915092 3.009405 0.000004 -0.000000 0.000000 13.340411 -1.006140 10.837314 -0.167764 0.303301 -30.950545 0.000002 0.000000 -0.000000 8.497916 -0.331011 -0.760247 0.230679 0.660657 -29.746826 -0.000002 0.000000 0.000002 6.113359 3.149182 -16.056033 0.047046 0.321368 -29.970419 -0.000000 0.000001 0.000000 -5.635380 7.708981 -13.723660 0.223792 0.276092 -46.433293 0.000002 0.000000 0.000001 -18.645064 3.158381 16.723947 0.000000 0.000000 0.000000 7.365357 -4.012502 58.411648 156.201905 144.055793 -156.460701 58.447145 -8.915759 -6.382663 0.630120 8.367632 -11.244482 -0.724224 -13.326709 3.592238 2.095411 -8.839551 -7.437880 0.000000 -0.000001 -0.000000 19.441942 11.173359 -14.416325 -0.119648 -0.321770 16.959146 -0.000000 0.000001 -0.000004 4.337927 2.446819 -5.888747 0.343347 -0.457182 25.813812 -0.000001 -0.000001 0.000001 -6.996709 -10.686219 4.645091 0.112032 -0.082034 25.079422 -0.000003 0.000000 0.000000 -19.430150 -20.234220 4.912570 0.220285 -0.081667 35.768113 -0.000001 -0.000000 -0.000000 -16.424501 5.683158 0.515084 91.700829 -11.419965 -1.251798 38.870224 -8.625419 -29.531494 -0.676368 0.771625 -0.079984 -0.000000 -0.000001 0.000000 -0.585987 11.448865 -6.279713 59.902849 9.582916 -14.336955 53.000451 8.440546 18.790299 19.106481 -3.625782 -17.625399 -0.000000 -0.000000 0.000000 
-2.534223 44.832741 87.925278 21.554168 -24.140696 -5.884336 5.324778 0.148310 1.033783 -5.487570 1.423601 2.351744 0.000000 0.000000 0.000000 -5.507078 1.408916 2.254499 -65.359555 0.986979 14.866096 13.903058 14.117407 -18.447586 -0.000003 -0.000000 0.000001 -19.123838 2.643942 -15.817979 0.000000 0.000000 0.000000 8.811191 13.503264 -48.194747 72.720109 -20.634396 30.098721 -17.435805 22.649356 -4.324288 -0.741600 -6.712997 8.749666 2.927769 21.139811 -1.929429 1.258414 2.425070 2.900834 0.000005 0.000002 -0.000000 13.336286 -1.001486 12.126838 -0.169174 0.302483 -29.660974 0.000002 0.000001 -0.000000 8.519023 -0.343216 0.529215 0.223472 0.656136 -28.457181 0.000000 0.000000 0.000002 6.127092 3.134687 -14.767287 0.046569 0.312732 -28.680886 -0.000002 -0.000000 0.000000 -5.629740 7.701557 -12.434842 0.218854 0.271845 -45.143726 0.000001 0.000000 0.000001 -18.793151 2.934422 16.971138 0.000000 0.000000 0.000000 7.755220 -2.903527 58.461310 155.010105 141.216265 -155.160601 55.970217 -10.115533 -6.424043 0.621924 8.403523 -11.236685 -0.945192 -12.892614 3.661375 1.958192 -8.371712 -7.350295 -0.000001 0.000001 0.000001 19.440154 11.172220 -15.590180 -0.120690 -0.320684 15.784926 0.000002 -0.000002 -0.000001 4.357212 2.457267 -7.063561 0.337133 -0.452613 24.639631 0.000002 -0.000000 0.000001 -6.986749 -10.676691 3.472835 0.112278 -0.074155 23.905283 -0.000000 0.000001 -0.000001 -19.426357 -20.229975 3.739693 0.216540 -0.077070 34.593914 -0.000000 -0.000000 -0.000000 -15.568521 5.094388 -0.218182 90.165532 -11.116159 -1.115474 38.809978 -8.597587 -29.458585 -0.846348 0.693700 -0.294560 -0.000000 0.000000 0.000000 -0.612401 10.970499 -6.190809 59.578798 10.148167 -14.058442 52.164248 8.398752 19.090500 19.130412 -4.281673 -16.135926 0.000002 -0.000000 0.000000 
-2.523209 44.560501 88.900818 22.647002 -24.244103 -5.830369 5.287954 0.176419 1.091798 -5.579763 1.386651 2.467672 0.000000 0.000000 0.000000 -5.597967 1.382292 2.371571 -66.531725 0.851088 14.977235 14.412290 14.182144 -18.577607 -0.000003 -0.000000 0.000000 -19.324738 2.867700 -15.372840 0.000000 0.000000 0.000000 11.222559 12.997945 -47.136092 70.495878 -22.628989 28.974472 -19.002119 22.383138 -3.511814 -0.855962 -7.156659 8.657846 2.728065 20.728670 -1.967473 1.098274 2.000878 2.805643 -0.000000 -0.000000 0.000001 13.332687 -0.997564 13.243808 -0.170390 0.301686 -28.543902 -0.000001 0.000002 0.000000 8.537465 -0.353304 1.646221 0.217329 0.652126 -27.340050 0.000001 0.000000 0.000001 6.139198 3.122422 -13.651072 0.046421 0.305275 -27.563788 -0.000003 -0.000001 0.000003 -5.624720 7.695237 -11.318495 0.214616 0.268137 -44.026631 0.000004 -0.000001 0.000001 -18.954772 2.720326 17.238105 0.000000 0.000000 0.000000 8.007435 -1.543122 58.369021 156.553236 137.723566 -156.028910 51.277539 -11.257145 -6.118200 0.614074 8.437608 -11.229189 -1.155324 -12.479941 3.728699 1.827049 -7.927016 -7.266417 -0.000002 -0.000002 0.000001 19.438401 11.171134 -16.706474 -0.121716 -0.319663 14.668268 -0.000003 -0.000000 -0.000001 4.375712 2.466757 -8.180833 0.331312 -0.448178 23.522965 0.000000 0.000000 0.000000 -6.977121 -10.667847 2.358087 0.112688 -0.066680 22.788663 0.000000 0.000000 0.000000 -19.422671 -20.226016 2.624335 0.213067 -0.072650 33.477298 0.000000 -0.000001 0.000000 -14.917738 4.421380 -0.968240 88.816242 -10.323023 -0.892530 38.717081 -8.526328 -29.246645 -0.743909 0.262940 -0.424642 -0.000000 0.000000 0.000000 -0.463120 10.608818 -6.194350 58.918940 10.342649 -13.784695 52.446919 8.572728 19.397759 17.769335 -4.435074 -13.778867 -0.000001 0.000000 -0.000000 
-2.509888 44.232689 89.925339 23.789298 -24.277670 -5.749866 5.260809 0.218070 1.129971 -5.663060 1.353725 2.575408 0.000000 0.000000 0.000000 -5.679923 1.360150 2.479899 -67.748469 0.721244 15.041653 14.908426 14.198109 -18.680199 -0.000003 0.000001 -0.000003 -19.520754 3.090938 -14.887418 0.000000 0.000000 0.000000 13.533067 12.286148 -45.847351 67.504720 -25.443279 27.159233 -20.419578 21.822121 -2.446583 -0.950503 -7.516264 8.582035 2.566211 20.394943 -1.999361 0.967869 1.656721 2.727509 0.000001 0.000000 0.000000 13.329680 -0.994433 14.150506 -0.171350 0.301060 -27.637157 -0.000002 0.000000 0.000000 8.552612 -0.361262 2.552872 0.212473 0.648775 -26.433250 0.000002 0.000003 0.000001 6.149243 3.112629 -12.744932 0.046347 0.299225 -26.657043 0.000001 -0.000001 0.000001 -5.620575 7.690170 -10.412296 0.211242 0.265076 -43.119869 -0.000004 0.000002 -0.000001 -19.127501 2.546788 17.483034 0.000000 0.000000 0.000000 8.238800 -0.098707 58.068001 160.341778 133.889821 -158.935729 44.865488 -12.163814 -5.670153 0.606829 8.469559 -11.222030 -1.352364 -12.093390 3.793176 1.703555 -7.510273 -7.187298 -0.000001 0.000002 -0.000003 19.436755 11.170194 -17.752872 -0.122616 -0.318712 13.621596 0.000000 -0.000000 -0.000003 4.393244 2.475372 -9.228078 0.325895 -0.443927 22.476237 -0.000000 0.000001 0.000001 -6.967925 -10.659746 1.313147 0.113203 -0.059661 21.741935 -0.000002 0.000002 0.000000 -19.419177 -20.222346 1.578872 0.209901 -0.068456 32.430647 0.000000 -0.000000 0.000000 -14.193999 3.616139 -1.865409 87.356726 -9.140607 -0.576832 38.604055 -8.472864 -29.098450 -0.513331 -0.349543 -0.436916 -0.000001 0.000000 -0.000000 -0.232714 10.262265 -6.268416 58.176307 10.234483 -13.501541 53.168211 8.744954 19.481308 15.602438 -4.166102 -10.722786 -0.000001 0.000000 0.000000 
-2.487415 43.861076 91.018036 24.998690 -24.224815 -5.683314 5.245119 0.254996 1.179306 -5.734329 1.325680 2.674344 0.000000 0.000000 0.000000 -5.749947 1.343243 2.579083 -68.979754 0.603839 15.062037 15.389053 14.174246 -18.750915 -0.000001 -0.000000 0.000000 -19.699145 3.311101 -14.383111 0.000000 0.000000 0.000000 15.604016 11.619169 -44.492412 63.822039 -28.749161 24.713738 -21.409259 21.003110 -1.279239 -1.020466 -7.777148 8.526006 2.448803 20.152461 -2.023143 0.872313 1.406790 2.671184 0.000002 0.000004 0.000001 13.327449 -0.992152 14.809310 -0.172056 0.300604 -26.978310 0.000001 0.000001 0.000000 8.563637 -0.366885 3.211696 0.208923 0.646242 -25.774381 0.000003 0.000001 0.000000 6.156618 3.105616 -12.086561 0.046350 0.294777 -25.998261 0.000002 -0.000001 0.000002 -5.617516 7.686530 -9.753865 0.208841 0.262781 -42.461029 0.000001 0.000001 -0.000000 -19.283613 2.435057 17.604323 0.000000 0.000000 0.000000 8.641508 1.247375 57.688980 166.356497 130.070748 -163.974974 37.221751 -12.729365 -5.220906 0.599722 8.499099 -11.216221 -1.533875 -11.737310 3.853668 1.589244 -7.126496 -7.113931 -0.000001 -0.000001 -0.000002 19.435259 11.169387 -18.716829 -0.123432 -0.317750 12.657274 0.000001 0.000001 -0.000001 4.409531 2.483048 -10.192925 0.321003 -0.439963 21.511942 0.000002 0.000000 0.000001 -6.959342 -10.652404 0.350518 0.113841 -0.053228 20.777715 -0.000001 -0.000000 0.000000 -19.415839 -20.219018 0.615723 0.207077 -0.064504 31.466320 -0.000000 0.000000 -0.000000 -13.418211 2.775191 -2.792412 85.706778 -8.131001 -0.252573 38.509348 -8.449686 -29.060283 -0.383190 -0.711375 -0.457316 -0.000002 0.000000 -0.000001 -0.048137 9.983984 -6.267283 57.557444 9.853395 -13.311368 53.650204 8.885246 19.590880 13.394286 -3.796230 -7.492410 -0.000001 0.000000 -0.000001 
